<?xml version="1.0" encoding="UTF-8"?>
<!DOCTYPE svg PUBLIC "-//W3C//DTD SVG 1.1//EN" "http://www.w3.org/Graphics/SVG/1.1/DTD/svg11.dtd">
<svg xmlns="http://www.w3.org/2000/svg" version="1.1" width="1920px" height="919px" style="shape-rendering:geometricPrecision; text-rendering:geometricPrecision; image-rendering:optimizeQuality; fill-rule:evenodd; clip-rule:evenodd" xmlns:xlink="http://www.w3.org/1999/xlink">
<g><path style="opacity:0.833" fill="#000000" d="M 61.5,5.5 C 674.167,5.33333 1286.83,5.5 1899.5,6C 1900.67,304.764 1900.83,603.597 1900,902.5C 1857.9,903.663 1815.74,903.83 1773.5,903C 1772.5,622.57 1772.17,342.07 1772.5,61.5C 1769.29,61.012 1766.46,61.6787 1764,63.5C 1674.19,321.756 1584.69,580.089 1495.5,838.5C 1566.5,838.333 1637.5,838.5 1708.5,839C 1709.66,859.427 1709.83,879.927 1709,900.5C 1598.24,901.665 1487.4,901.832 1376.5,901C 1375.94,900.275 1375.61,899.442 1375.5,898.5C 1474.71,618.213 1573.71,337.879 1672.5,57.5C 1586.83,57.1667 1501.16,57.5 1415.5,58.5C 1320.76,312.381 1226.43,566.381 1132.5,820.5C 1201.17,820.333 1269.83,820.5 1338.5,821C 1339.66,845.094 1339.83,869.261 1339,893.5C 1232.9,894.665 1126.74,894.832 1020.5,894C 1019.94,893.275 1019.61,892.442 1019.5,891.5C 1123.51,611.803 1227.51,332.137 1331.5,52.5C 1150.17,52.5 968.833,52.5 787.5,52.5C 787.5,307.167 787.5,561.833 787.5,816.5C 847.071,816.169 906.571,816.502 966,817.5C 966.827,841.073 966.66,864.573 965.5,888C 886.597,888.831 807.763,888.665 729,887.5C 728.5,607.834 728.333,328.167 728.5,48.5C 709.5,48.5 690.5,48.5 671.5,48.5C 671.667,328.167 671.5,607.834 671,887.5C 622.571,888.664 574.071,888.83 525.5,888C 524.5,606.903 524.167,325.736 524.5,44.5C 498.167,44.5 471.833,44.5 445.5,44.5C 445.667,321.5 445.5,598.5 445,875.5C 443.612,876.554 442.112,876.72 440.5,876C 382.129,734.761 323.629,593.594 265,452.5C 198.667,589.167 132.333,725.833 66,862.5C 64.3333,863.833 62.6667,863.833 61,862.5C 60.1676,576.764 60.3342,291.097 61.5,5.5 Z M 66.5,11.5 C 675.833,11.5 1285.17,11.5 1894.5,11.5C 1894.5,306.833 1894.5,602.167 1894.5,897.5C 1855.83,897.5 1817.17,897.5 1778.5,897.5C 1778.83,616.93 1778.5,336.43 1777.5,56C 1771.83,55.3333 1766.17,55.3333 1760.5,56C 1669.01,317.635 1578.01,579.468 1487.5,841.5C 1487.61,842.442 1487.94,843.275 1488.5,844C 1560.17,844.5 1631.83,844.667 1703.5,844.5C 1703.5,861.5 1703.5,878.5 1703.5,895.5C 1596.83,895.5 1490.17,895.5 1383.5,895.5C 1480.69,619.755 1578.19,344.088 1676,68.5C 1678.18,63.2997 1679.52,57.9664 1680,52.5C 1590.57,51.335 1501.07,51.1683 1411.5,52C 1315.35,308.962 1219.68,566.129 1124.5,823.5C 1124.61,824.442 1124.94,825.275 1125.5,826C 1194.83,826.5 1264.17,826.667 1333.5,826.5C 1333.5,847.167 1333.5,867.833 1333.5,888.5C 1231.5,888.5 1129.5,888.5 1027.5,888.5C 1131.49,608.863 1235.49,329.197 1339.5,49.5C 1339.39,48.5581 1339.06,47.7247 1338.5,47C 1152.93,46.1675 967.431,46.3341 782,47.5C 781.333,305.5 781.333,563.5 782,821.5C 841.429,822.498 900.929,822.831 960.5,822.5C 960.5,842.5 960.5,862.5 960.5,882.5C 885.167,882.5 809.833,882.5 734.5,882.5C 734.667,602.833 734.5,323.166 734,43.5C 722.741,42.8385 711.407,42.5051 700,42.5C 688.593,42.5051 677.259,42.8385 666,43.5C 665.5,323.166 665.333,602.833 665.5,882.5C 620.5,882.5 575.5,882.5 530.5,882.5C 530.667,601.5 530.5,320.5 530,39.5C 500,38.1667 470,38.1667 440,39.5C 439.667,311.833 439.333,584.167 439,856.5C 382.333,719.167 325.667,581.833 269,444.5C 267.776,441.527 265.776,440.86 263,442.5C 197.667,577.167 132.333,711.833 67,846.5C 66.5,568.167 66.3333,289.834 66.5,11.5 Z"/></g>
<g><path style="opacity:0.826" fill="#000000" d="M 111.5,39.5 C 113.144,39.2865 114.644,39.6198 116,40.5C 116.333,194.5 116.667,348.5 117,502.5C 166.417,423.998 216.083,345.664 266,267.5C 267.667,266.167 269.333,266.167 271,267.5C 313.333,344.833 355.667,422.167 398,499.5C 398.333,347.833 398.667,196.167 399,44.5C 400.667,43.1667 402.333,43.1667 404,44.5C 404.832,201.403 404.666,358.236 403.5,515C 402.167,515.667 400.833,515.667 399.5,515C 356.047,435.259 312.214,355.759 268,276.5C 217.042,356.249 166.208,436.082 115.5,516C 113.888,516.72 112.388,516.554 111,515.5C 110.168,356.764 110.335,198.097 111.5,39.5 Z"/></g>
<g><path style="opacity:0.83" fill="#000000" d="M 188.5,41.5 C 190.144,41.2865 191.644,41.6198 193,42.5C 193.333,103.167 193.667,163.833 194,224.5C 216.333,196.833 238.667,169.167 261,141.5C 262.786,138.638 265.119,137.972 268,139.5C 288.419,170.672 309.085,201.672 330,232.5C 330.333,170.5 330.667,108.5 331,46.5C 332.667,45.1667 334.333,45.1667 336,46.5C 336.831,113.07 336.664,179.57 335.5,246C 333.888,246.72 332.388,246.554 331,245.5C 309.415,212.661 287.581,179.994 265.5,147.5C 241.008,176.83 216.674,206.33 192.5,236C 190.888,236.72 189.388,236.554 188,235.5C 187.171,170.763 187.337,106.096 188.5,41.5 Z"/></g>
<g><path style="opacity:0.818" fill="#000000" d="M 247.5,43.5 C 249.144,43.2865 250.644,43.6198 252,44.5C 252.333,52.8333 252.667,61.1667 253,69.5C 255.61,67.1179 258.443,65.1179 261.5,63.5C 264.087,64.7444 266.42,66.411 268.5,68.5C 269.331,60.8549 269.831,53.1883 270,45.5C 271.667,44.1667 273.333,44.1667 275,45.5C 275.82,56.7431 275.653,67.9098 274.5,79C 273.167,79.6667 271.833,79.6667 270.5,79C 267.77,75.8925 264.603,73.3925 261,71.5C 257.844,73.9861 254.678,76.4861 251.5,79C 249.888,79.7203 248.388,79.5536 247,78.5C 246.189,66.7574 246.356,55.0907 247.5,43.5 Z"/></g>
<g><path style="opacity:0.842" fill="#000000" d="M 1800.5,55.5 C 1802.14,55.2865 1803.64,55.6198 1805,56.5C 1805.5,327.833 1805.67,599.166 1805.5,870.5C 1827.83,870.5 1850.17,870.5 1872.5,870.5C 1872.33,599.833 1872.5,329.166 1873,58.5C 1874.67,57.1667 1876.33,57.1667 1878,58.5C 1878.67,330.833 1878.67,603.167 1878,875.5C 1852.24,876.661 1826.41,876.828 1800.5,876C 1799.17,602.5 1799.17,329 1800.5,55.5 Z"/></g>
<g><path style="opacity:0.82" fill="#000000" d="M 595.5,65.5 C 597.144,65.2865 598.644,65.6198 600,66.5C 600.667,82.8333 600.667,99.1667 600,115.5C 598.333,116.833 596.667,116.833 595,115.5C 594.182,98.7594 594.349,82.0927 595.5,65.5 Z"/></g>
<g><path style="opacity:0.842" fill="#000000" d="M 1823.5,65.5 C 1825.14,65.2865 1826.64,65.6198 1828,66.5C 1828.5,325.833 1828.67,585.166 1828.5,844.5C 1835.17,844.5 1841.83,844.5 1848.5,844.5C 1848.33,585.166 1848.5,325.833 1849,66.5C 1850.67,65.1667 1852.33,65.1667 1854,66.5C 1854.67,327.5 1854.67,588.5 1854,849.5C 1843.67,850.833 1833.33,850.833 1823,849.5C 1822.17,588.097 1822.33,326.764 1823.5,65.5 Z"/></g>
<g><path style="opacity:0.841" fill="#000000" d="M 952.5,85.5 C 954.144,85.2865 955.644,85.6198 957,86.5C 957.5,278.5 957.667,470.5 957.5,662.5C 961.182,662.335 964.848,662.501 968.5,663C 969.833,664.667 969.833,666.333 968.5,668C 962.916,668.806 957.416,668.639 952,667.5C 951.168,473.431 951.335,279.431 952.5,85.5 Z"/></g>
<g><path style="opacity:0.816" fill="#000000" d="M 994.5,86.5 C 1094.17,86.3333 1193.83,86.5 1293.5,87C 1294.06,87.7247 1294.39,88.5581 1294.5,89.5C 1194.34,355.828 1094.17,622.162 994,888.5C 993.051,891.2 991.217,892.033 988.5,891C 987.665,887.437 988.165,883.937 990,880.5C 1089.33,617.992 1188.17,355.325 1286.5,92.5C 1189.17,92.6667 1091.83,92.5 994.5,92C 993.248,90.1722 993.248,88.3388 994.5,86.5 Z"/></g>
<g><path style="opacity:0.842" fill="#000000" d="M 830.5,87.5 C 832.144,87.2865 833.644,87.6198 835,88.5C 835.5,317.833 835.667,547.166 835.5,776.5C 878.835,776.333 922.168,776.5 965.5,777C 966.833,778.667 966.833,780.333 965.5,782C 920.262,782.83 875.096,782.663 830,781.5C 829.168,550.097 829.334,318.764 830.5,87.5 Z"/></g>
<g><path style="opacity:0.842" fill="#000000" d="M 874.5,87.5 C 876.144,87.2865 877.644,87.6198 879,88.5C 879.5,303.5 879.667,518.5 879.5,733.5C 908.169,733.333 936.835,733.5 965.5,734C 966.833,735.667 966.833,737.333 965.5,739C 934.928,739.829 904.428,739.662 874,738.5C 873.168,521.431 873.335,304.431 874.5,87.5 Z"/></g>
<g><path style="opacity:0.841" fill="#000000" d="M 917.5,87.5 C 919.144,87.2865 920.644,87.6198 922,88.5C 922.5,292.833 922.667,497.166 922.5,701.5C 937.504,701.333 952.504,701.5 967.5,702C 968.833,703.667 968.833,705.333 967.5,707C 950.593,707.825 933.759,707.658 917,706.5C 916.168,500.097 916.335,293.764 917.5,87.5 Z"/></g>
<g><path style="opacity:0.815" fill="#000000" d="M 1434.5,87.5 C 1437.04,87.1505 1439.04,87.9838 1440.5,90C 1352.36,323.411 1264.03,556.745 1175.5,790C 1237.83,790.333 1300.17,790.667 1362.5,791C 1364.78,792.03 1365.44,793.53 1364.5,795.5C 1299.17,796.5 1233.84,796.833 1168.5,796.5C 1168.34,794.473 1168.5,792.473 1169,790.5C 1257.61,556.182 1346.11,321.849 1434.5,87.5 Z"/></g>
<g><path style="opacity:0.813" fill="#000000" d="M 1480.5,89.5 C 1482.17,89.5 1483.83,89.5 1485.5,89.5C 1485.65,92.6074 1485.15,95.6074 1484,98.5C 1400.02,316.762 1315.86,534.929 1231.5,753C 1279.5,753.333 1327.5,753.667 1375.5,754C 1377.78,755.03 1378.44,756.53 1377.5,758.5C 1326.5,759.5 1275.5,759.833 1224.5,759.5C 1224.35,756.393 1224.85,753.393 1226,750.5C 1310.85,530.146 1395.68,309.812 1480.5,89.5 Z"/></g>
<g><path style="opacity:0.812" fill="#000000" d="M 1524.5,91.5 C 1526.17,91.5 1527.83,91.5 1529.5,91.5C 1529.65,94.6074 1529.15,97.6074 1528,100.5C 1447.16,304.35 1366.33,508.184 1285.5,712C 1320.83,712.333 1356.17,712.667 1391.5,713C 1393.78,714.03 1394.44,715.53 1393.5,717.5C 1355.17,718.5 1316.84,718.833 1278.5,718.5C 1278.35,715.393 1278.85,712.393 1280,709.5C 1361.79,503.591 1443.29,297.591 1524.5,91.5 Z"/></g>
<g><path style="opacity:0.809" fill="#000000" d="M 1575.5,94.5 C 1577.17,94.5 1578.83,94.5 1580.5,94.5C 1579.93,100.052 1578.43,105.385 1576,110.5C 1498,299.001 1420.5,487.668 1343.5,676.5C 1364.17,676.333 1384.84,676.5 1405.5,677C 1407.78,678.03 1408.44,679.53 1407.5,681.5C 1383.51,682.5 1359.51,682.833 1335.5,682.5C 1336.07,676.948 1337.57,671.615 1340,666.5C 1418.79,475.926 1497.29,285.259 1575.5,94.5 Z"/></g>
<g><path style="opacity:0.807" fill="#000000" d="M 1623.5,96.5 C 1625.17,96.5 1626.83,96.5 1628.5,96.5C 1627.93,102.052 1626.43,107.385 1624,112.5C 1552.53,285.082 1481.36,457.748 1410.5,630.5C 1415.18,630.334 1419.85,630.501 1424.5,631C 1426.19,632.401 1426.86,634.234 1426.5,636.5C 1418.47,636.831 1410.47,636.498 1402.5,635.5C 1402.29,634.914 1401.96,634.414 1401.5,634C 1475.64,454.884 1549.64,275.718 1623.5,96.5 Z"/></g>
<g><path style="opacity:0.815" fill="#000000" d="M 994.5,123.5 C 1075.5,123.333 1156.5,123.5 1237.5,124C 1238.06,124.725 1238.39,125.558 1238.5,126.5C 1155.43,343.534 1072.27,560.534 989,777.5C 988.051,780.2 986.217,781.033 983.5,780C 982.941,779.275 982.608,778.442 982.5,777.5C 1065.18,561.473 1147.85,345.473 1230.5,129.5C 1151.83,129.667 1073.17,129.5 994.5,129C 993.248,127.172 993.248,125.339 994.5,123.5 Z"/></g>
<g><path style="opacity:0.815" fill="#000000" d="M 994.5,164.5 C 1057.5,164.333 1120.5,164.5 1183.5,165C 1184.06,165.725 1184.39,166.558 1184.5,167.5C 1118.77,334.534 1052.93,501.534 987,668.5C 984.214,670.184 982.38,669.517 981.5,666.5C 1046.3,501.426 1111.3,336.426 1176.5,171.5C 1115.84,170.667 1055.17,170.167 994.5,170C 993.248,168.172 993.248,166.339 994.5,164.5 Z"/></g>
<g><path style="opacity:0.817" fill="#000000" d="M 1749.5,174.5 C 1751.14,174.286 1752.64,174.62 1754,175.5C 1754.33,178.207 1753.99,180.874 1753,183.5C 1685.82,393.027 1618.66,602.527 1551.5,812C 1601.83,812.5 1652.17,812.667 1702.5,812.5C 1702.5,792.167 1702.5,771.833 1702.5,751.5C 1682.16,751.667 1661.83,751.5 1641.5,751C 1640.94,750.275 1640.61,749.442 1640.5,748.5C 1671.87,649.547 1703.54,550.713 1735.5,452C 1737.11,451.28 1738.61,451.446 1740,452.5C 1740.33,455.207 1739.99,457.874 1739,460.5C 1708.49,555.361 1677.99,650.194 1647.5,745C 1667.74,745.173 1687.91,745.673 1708,746.5C 1708.67,770.167 1708.67,793.833 1708,817.5C 1653.9,818.664 1599.74,818.831 1545.5,818C 1544.94,817.275 1544.61,816.442 1544.5,815.5C 1612.64,601.738 1680.98,388.072 1749.5,174.5 Z"/></g>
<g><path style="opacity:0.841" fill="#000000" d="M 596.5,198.5 C 598.144,198.286 599.644,198.62 601,199.5C 601.667,406.167 601.667,612.833 601,819.5C 599.333,820.833 597.667,820.833 596,819.5C 595.168,612.431 595.335,405.431 596.5,198.5 Z"/></g>
<g><path style="opacity:0.812" fill="#000000" d="M 995.5,200.5 C 1039.17,200.333 1082.83,200.5 1126.5,201C 1127.06,201.725 1127.39,202.558 1127.5,203.5C 1081.61,316.276 1035.45,428.942 989,541.5C 986.214,543.184 984.38,542.517 983.5,539.5C 1028.64,428.758 1073.97,318.092 1119.5,207.5C 1078.17,206.667 1036.84,206.167 995.5,206C 994.248,204.172 994.248,202.339 995.5,200.5 Z"/></g>
<g><path style="opacity:0.81" fill="#000000" d="M 999.5,246.5 C 1019.5,246.333 1039.5,246.5 1059.5,247C 1060.06,247.725 1060.39,248.558 1060.5,249.5C 1037.29,304.617 1013.79,359.617 990,414.5C 987.214,416.184 985.38,415.517 984.5,412.5C 1006.89,359.389 1029.55,306.389 1052.5,253.5C 1034.84,252.667 1017.18,252.167 999.5,252C 998.248,250.172 998.248,248.339 999.5,246.5 Z"/></g>
<g><path style="opacity:0.803" fill="#000000" d="M 998.5,273.5 C 1004.18,273.334 1009.84,273.501 1015.5,274C 1016.06,274.725 1016.39,275.558 1016.5,276.5C 1007.61,295.284 998.441,313.951 989,332.5C 984.667,334.5 983,333.167 984,328.5C 992.039,312.256 1000.21,296.089 1008.5,280C 1005.17,279.667 1001.83,279.333 998.5,279C 997.248,277.172 997.248,275.339 998.5,273.5 Z"/></g>
<g><path style="opacity:0.841" fill="#000000" d="M 1747.5,320.5 C 1751.68,319.842 1753.18,321.508 1752,325.5C 1701.69,476.757 1651.19,627.924 1600.5,779C 1626.5,779.333 1652.5,779.667 1678.5,780C 1679.55,781.388 1679.72,782.888 1679,784.5C 1650.91,785.661 1622.74,785.828 1594.5,785C 1593.45,783.612 1593.28,782.112 1594,780.5C 1645.08,627.102 1696.24,473.768 1747.5,320.5 Z"/></g>
</svg>
